<?xml version="1.0" encoding="utf-8"?>
<svg viewBox="0 0 100 100" xmlns="http://www.w3.org/2000/svg">
  <path d="M50 8 C25 8 8 28 8 53 C8 73 18 88 33 88 L33 70 C25 70 22 62 22 53 C22 36 34 22 50 22 C66 22 78 36 78 53 C78 62 75 70 67 70 L67 88 C82 88 92 73 92 53 C92 28 75 8 50 8Z" fill="#94A3B8" stroke="#64748B" stroke-width="2.5"/>
  <ellipse cx="35" cy="45" rx="6" ry="5" fill="#1E293B"/>
  <ellipse cx="65" cy="45" rx="6" ry="5" fill="#1E293B"/>
  <path d="M38 65 Q50 72 62 65" stroke="#1E293B" stroke-width="2.5" fill="none" stroke-linecap="round"/>
</svg>