<?xml version="1.0" encoding="utf-8"?>
<svg viewBox="0 0 100 100" xmlns="http://www.w3.org/2000/svg">
  <path d="M50 95 C20 95 8 75 12 55 C15 40 25 35 25 35 C23 50 32 52 32 52 C28 38 38 20 50 5 C50 5 46 25 55 30 C55 30 50 15 62 10 C75 20 88 40 82 60 C78 75 70 80 68 80 C72 70 66 62 66 62 C62 78 50 95 50 95Z" fill="#F97316"/>
  <path d="M50 85 C35 85 26 72 28 60 C30 52 36 48 36 48 C35 57 41 59 41 59 C39 50 45 40 50 30 C50 30 48 43 54 47 C54 47 51 38 58 36 C65 43 72 55 68 66 C65 74 59 79 58 79 C60 73 56 67 56 67 C53 76 50 85 50 85Z" fill="#FCD34D"/>
</svg>