<?xml version="1.0" encoding="utf-8"?>
<svg viewBox="0 0 100 100" xmlns="http://www.w3.org/2000/svg">
  <path d="M50 95 C20 95 8 75 12 55 C15 40 25 35 25 35 C23 50 32 52 32 52 C28 38 38 20 50 5 C50 5 46 25 55 30 C55 30 50 15 62 10 C75 20 88 40 82 60 C78 75 70 80 68 80 C72 70 66 62 66 62 C62 78 50 95 50 95Z" fill="#A855F7" stroke="#6B21A8" stroke-width="2"/>
  <path d="M50 82 C35 82 30 72 32 62 C34 56 39 52 39 52 C38 59 43 61 43 61 C41 54 47 46 50 38 C53 46 57 50 56 57 C58 53 59 45 63 44 C68 50 72 60 68 68 C65 74 60 77 59 77 C61 72 58 68 58 68 C55 75 50 82 50 82Z" fill="#E9D5FF"/>
</svg>