<?xml version="1.0" encoding="utf-8"?>
<svg viewBox="0 0 100 100" xmlns="http://www.w3.org/2000/svg">
  <path d="M50 10 C25 10 10 30 10 55 C10 75 20 90 35 90 L35 70 C28 70 24 63 24 55 C24 38 35 24 50 24 C65 24 76 38 76 55 C76 63 72 70 65 70 L65 90 C80 90 90 75 90 55 C90 30 75 10 50 10Z" fill="white" stroke="#D1D5DB" stroke-width="2"/>
  <ellipse cx="35" cy="47" rx="7" ry="5" fill="#1F2937"/>
  <ellipse cx="65" cy="47" rx="7" ry="5" fill="#1F2937"/>
  <path d="M38 67 Q50 74 62 67" stroke="#1F2937" stroke-width="2.5" fill="none" stroke-linecap="round"/>
</svg>